<?xml version="1.0" standalone="no"?>
<!DOCTYPE svg PUBLIC "-//W3C//DTD SVG 20010904//EN"
 "http://www.w3.org/TR/2001/REC-SVG-20010904/DTD/svg10.dtd">
<svg version="1.0" xmlns="http://www.w3.org/2000/svg"
 width="273.000000pt" height="273.000000pt" viewBox="0 0 273.000000 273.000000"
 preserveAspectRatio="xMidYMid meet">
<metadata>
Created by potrace 1.11, written by Peter Selinger 2001-2013
</metadata>
<g transform="translate(0.000000,273.000000) scale(0.100000,-0.100000)"
fill="#000000" stroke="none">
<path d="M948 2718 c-27 -22 -28 -46 -4 -81 22 -31 23 -45 24 -170 l0 -136
-40 -53 c-88 -115 -109 -207 -75 -318 18 -61 83 -153 110 -158 46 -9 62 50 26
99 -18 26 -21 44 -21 153 l0 124 49 63 c92 119 115 200 85 302 -20 70 -103
187 -131 187 -4 0 -14 -6 -23 -12z"/>
<path d="M1180 2707 c-33 -17 -36 -49 -8 -90 21 -32 23 -44 22 -166 l-1 -131
-39 -55 c-77 -110 -88 -135 -90 -210 -3 -80 18 -143 74 -220 27 -38 37 -46 60
-43 42 5 52 48 20 90 -24 31 -25 39 -24 158 l1 125 49 65 c73 97 98 157 95
229 -3 70 -39 154 -96 219 -36 40 -40 41 -63 29z"/>
<path d="M1404 2692 c-9 -14 -8 -26 3 -52 7 -19 17 -37 22 -40 12 -8 20 -50 9
-50 -5 0 -6 -5 -2 -11 4 -7 7 -56 7 -110 0 -84 -3 -102 -24 -136 -13 -21 -29
-44 -36 -51 -6 -7 -26 -41 -44 -77 -30 -61 -39 -125 -27 -185 7 -33 62 -136
86 -162 32 -34 68 -37 78 -5 10 28 6 45 -16 77 -14 21 -18 47 -18 149 0 122 0
124 31 167 17 24 34 44 39 44 4 0 8 6 8 14 0 8 7 21 15 30 25 25 46 84 50 142
5 61 -22 149 -59 195 -12 15 -30 38 -40 53 -22 31 -66 35 -82 8z"/>
<path d="M222 1733 c-29 -12 -39 -57 -36 -168 5 -218 24 -392 58 -540 2 -11 9
-42 16 -70 10 -48 94 -269 110 -290 4 -5 21 -35 39 -67 l31 -56 -197 -1 c-176
-1 -200 -3 -216 -19 -23 -24 -29 -59 -14 -87 23 -43 184 -232 228 -267 96 -77
201 -118 404 -156 54 -10 968 -9 1025 1 65 12 189 45 235 63 139 56 192 99
341 277 80 95 90 126 54 165 -23 24 -14 24 -273 22 l-159 0 20 27 c27 38 96
175 125 247 l24 58 31 -55 c65 -116 165 -187 270 -193 73 -4 118 8 178 49 50
33 147 144 138 158 -2 4 0 10 5 13 11 7 49 118 57 167 13 74 11 209 -2 261 -8
29 -16 64 -19 77 -2 13 -9 29 -15 35 -5 5 -10 16 -10 23 0 21 -63 113 -105
155 -56 56 -118 82 -199 85 -46 1 -81 -3 -105 -14 -20 -9 -42 -17 -50 -19 -8
-1 -17 -6 -20 -11 -3 -4 -19 -19 -35 -33 l-28 -25 2 35 c5 87 0 119 -22 140
-22 20 -29 20 -947 19 -509 0 -932 -3 -939 -6z"/>
</g>
</svg>
